<?xml version="1.0" encoding="UTF-8" standalone="no"?> <svg xmlns:dc="http://purl.org/dc/elements/1.1/" xmlns:cc="http://creativecommons.org/ns#" xmlns:rdf="http://www.w3.org/1999/02/22-rdf-syntax-ns#" xmlns:svg="http://www.w3.org/2000/svg" xmlns="http://www.w3.org/2000/svg" height="822.52032" width="1475.15" viewBox="0 0 1475.15 822.52031" data-name="Capa 1" id="Capa_1"><metadata id="metadata107"></metadata><defs id="defs105"></defs><title id="title2">logo-shandong</title><path id="path4" style="fill:#1f140f" d="m 588.15,328.00035 c -10.1,-8.79 -17.67,-19.45 -20.84,-32.42 -4.57,-18.75 -10.3,-37 -20.2,-53.63 -4.48,-7.5 -9.44,-15.45 -16.16,-20.7 -14.27,-11.13 -30.52,-19.35 -48.63,-22.54 -9.27,-1.65 -18.6,-2.95 -27.54,3.35 -3.78,2.66 -10.5,4.11 -14.7,2.65 -15.55,-5.34 -31.32,-5.12 -47.23,-4.3 -5.48,0.28 -10.32,-0.13 -15.32,-3 -13.62,-7.7 -26.93,-15.76 -37.41,-27.56 -11,-12.4 -18,-27.17 -23.86,-42.53 -0.69,-1.82 -2.65,-3.15 -4,-4.7 -1.44,1.4 -3.5,2.55 -4.23,4.26 -2.05,4.9 -3.49,10.06 -5.3,15.08 -3.35,9.21 -6.25,18.65 -10.37,27.51 -3.86,8.27 -9.62,15.66 -13.54,23.88 -2.93,6.13 -4.3,13 -6.36,19.54 l 2.28,1.15 c 0.93,-0.77 1.89,-1.5 2.78,-2.31 3.92,-3.62 7.45,-7.75 11.78,-10.75 7,-4.92 14.07,-3.82 17.78,2.59 a 29.57,29.57 0 0 1 3.75,11.27 c 1.21,11 -3.13,20.3 -10,28.55 -10.06,12.05 -14.25,25.88 -11.16,41.18 1.91,9.42 6.17,18.35 8.42,27.73 a 287,287 0 0 1 5.4,30.45 c 1,7.87 1.25,16.21 7.19,21.94 11.44,11 23.07,22 35.58,31.68 a 65.8,65.8 0 0 0 23.6,11.59 c 9.63,2.45 17,7.09 22.25,14.89 6.39,9.54 14.48,16.51 25.73,18.48 6.62,1.16 13.61,0.22 22,0.22 -2.53,-2.41 -3.84,-3.83 -5.32,-5 -4.6,-3.72 -9,-7.31 -9,-14.2 0,-2.09 -2,-4.84 -3.82,-6.14 a 70.52,70.52 0 0 0 -13,-7.31 c -3.91,-1.67 -7.43,-3.45 -8.16,-7.94 -1,-5.89 -1.77,-11.82 -2.25,-17.77 -1.29,-15.81 -13.16,-27.18 -30.17,-20.82 -7.08,2.65 -15.31,3.36 -21.64,-1.95 a 40.69,40.69 0 0 1 -13.11,-21.49 c -1,-3.83 0.85,-6.75 3.87,-9.14 a 33.34,33.34 0 0 0 3.43,-3.68 c -3.66,-1.34 -7.21,-1.79 -9.63,-3.66 -4.67,-3.64 -4.54,-9.38 -2.18,-13.8 3.16,-5.92 7.68,-11.18 12,-16.43 5.58,-6.82 4.95,-10.75 -2.37,-16 -9.77,-6.91 -17.4,-15.44 -20.15,-27.69 -2.32,-10.35 -0.87,-20.44 1.62,-30.33 1.69,-6.73 5.42,-13.37 13.45,-13.88 12.4,-0.78 24.84,0.14 36.57,4.79 7.62,3 10.77,8.94 8.5,15.32 -1,2.74 -3.2,5 -4.73,7.58 -0.91,1.52 -1.57,3.21 -2.34,4.82 l 1.11,0.75 c 1.4,-1.08 2.82,-2.15 4.22,-3.24 4.93,-3.9 9.93,-6.32 16.55,-3.46 a 11.61,11.61 0 0 0 8.54,-0.45 c 7.12,-3.35 10.4,-1.69 10.91,6.37 0.88,14.44 6,27 16.62,37 23.2,22 50.85,33.9 82.66,34.6 7,0.16 10.66,2.57 14.32,7.14 a 99,99 0 0 1 6,8 c 10.28,15.88 15.42,34.2 -0.76,50.75 a 11.82,11.82 0 0 0 -2.44,13.56 c 5.39,12.27 6.31,25.33 6,38.39 -0.2,7.47 0.78,14.4 4.46,20.75 2.62,4.54 4.72,9.7 11.23,12.86 -0.82,-2.29 -1.08,-3.32 -1.53,-4.26 -5.29,-10.77 -8.77,-22 -5,-33.88 2.93,-9.35 6.77,-18.42 10.19,-27.62 2.67,-7.16 6.87,-14.18 7.63,-21.55 1.62,-15.76 8.93,-27.4 21.38,-36.35 2.52,-1.81 5.35,-3.17 8.63,-5.09 -1.75,-1.26 -2.89,-2.15 -3.98,-3.1 z m -53.34,-67.74 a 34.19,34.19 0 0 1 -10.19,17.14 c -4.71,4.49 -11.56,5.44 -18.23,5.67 -2.19,0.09 -4.35,1.42 -6.52,2.13 -0.89,0.29 -2,0.88 -2.73,0.63 q -10.16,-3.27 -20.21,-6.91 c -1,-0.35 -1.63,-1.56 -2.58,-2.18 -1.4,-0.91 -3,-1.57 -4.37,-2.46 -2.94,-1.88 -5.85,-3.77 -8.66,-5.81 -0.75,-0.55 -0.91,-2.06 -1.67,-2.42 -6.75,-3 -8,-10.13 -12,-15.17 -4.85,-6.22 -4.1,-12.34 -3.9,-18.85 0.26,-8.11 6.42,-15.6 14.53,-16.82 7.82,-1.16 15.72,-0.77 22.9,3.39 2.07,1.21 2.57,2.31 2.2,5.14 -1.32,10.15 -3.56,20.54 1.65,30.38 3.59,6.8 8.17,9.46 13.88,8.34 3.88,-0.77 8.55,-7.16 9.1,-12.8 0.26,-2.66 0,-5.36 0,-8 h 0.37 c -0.39,-3.82 -0.8,-7.62 -1.18,-11.44 -0.28,-2.79 0.63,-4.59 3.66,-3.13 5.37,2.55 10.68,5.24 15.88,8.14 8.07,4.34 9.83,17.49 8.07,25.03 z"></path><path id="path6" style="fill:#1f140f" d="m 1201.57,207.68035 c -1.73,-9.86 -6,-18.54 -11.34,-27 a 144.74,144.74 0 0 1 -11.86,-23.56 c -4.21,-10.5 -7.37,-21.41 -11.25,-32.07 -0.57,-1.58 -2.51,-2.65 -3.83,-4 -1.43,1.42 -3.35,2.6 -4.21,4.31 -5.37,10.7 -9.84,21.9 -15.88,32.17 -10.22,17.35 -26.85,27.58 -43.84,37.31 a 28.62,28.62 0 0 1 -20,3.69 c -6.54,-1.08 -13.4,-0.73 -20.08,-0.2 a 77.21,77.21 0 0 0 -18.23,3.24 c -7.27,2.37 -14.33,3.11 -20.68,-1.16 -7.16,-4.82 -14.7,-4.78 -22.61,-4 -13.75,1.33 -26.23,6.48 -38.06,13.2 -9.24,5.26 -18.71,10.16 -25,19.6 -12.9,19.47 -21.15,40.73 -26.53,63.31 -3.23,13.59 -10.66,24.78 -21.24,33.82 -3.39,2.91 -3.41,3.75 0.45,5.88 11.88,6.61 20.59,15.9 23.9,29.43 1.16,4.69 1.13,9.74 2.76,14.22 4.52,12.36 9.33,24.63 14.58,36.69 5.35,12.34 4.68,24.33 -0.48,36.41 -1.12,2.58 -2.16,5.2 -3.49,8.4 1.49,-0.28 2.13,-0.2 2.39,-0.48 8.16,-8.47 13.61,-18 13.06,-30.34 -0.59,-12.61 0,-25.37 4.83,-37.08 3.38,-8.18 1.57,-13.83 -3.9,-20 -7.25,-8.13 -9.46,-17.95 -6.82,-28.6 2.41,-9.73 7.47,-18.17 13.7,-26 4.14,-5.16 8.15,-10.41 16.06,-7.82 a 7.26,7.26 0 0 0 2.5,0 c 27.91,-1.9 52.48,-12.13 74,-29.86 13.13,-10.81 21.16,-24.38 22,-41.76 0.41,-8.65 4.09,-10.38 11.88,-6.36 a 9.45,9.45 0 0 0 7.21,0.31 c 4.77,-2.11 9,-2.16 13.29,0.75 2.88,2 5.78,3.9 8.66,5.85 0.28,-0.33 0.57,-0.64 0.84,-1 -1.69,-2.64 -3.24,-5.39 -5.08,-7.89 -6.75,-9.2 -2.17,-15.63 5.07,-19.07 11.11,-5.29 23,-5.28 34.9,-5.61 7,-0.2 11.36,3.46 14.06,9.35 4,8.88 4.93,18.34 4.53,28 -0.35,8.78 -3.13,16.84 -8.94,23.43 a 90,90 0 0 1 -12.56,11.4 c -7,5.37 -7.64,9.19 -2,15.71 2.53,2.9 5.72,5.43 7.56,8.71 2.39,4.22 4.55,8.92 5.3,13.64 1,6.06 -3,9.92 -9.17,10.89 a 35.54,35.54 0 0 0 -4.73,1.51 c 8.57,6 10.51,8.93 7.84,14.43 a 128.7,128.7 0 0 1 -11,17.82 c -1.21,1.75 -3.84,3.47 -5.83,3.49 -7,0.1 -13.9,-0.59 -20.86,-0.93 -3.56,-0.18 -7.24,-0.89 -10.65,-0.25 -10,1.91 -15.24,12.39 -15.86,21.36 -0.26,3.85 0.29,7.8 -0.43,11.54 -1,5.15 -1.58,10.83 -7.34,13.44 -2.57,1.17 -5.43,1.76 -7.9,3.09 -5,2.7 -11.11,5.29 -11.61,11.54 -0.62,7.93 -5.6,11.7 -11.15,15.52 a 26.82,26.82 0 0 1 -3.82,1.73 c 2.45,1.47 3.1,2.2 3.8,2.24 17.31,1.11 32,0.06 44,-18.31 5.2,-8 12.63,-13 22,-15.53 a 79.81,79.81 0 0 0 18.72,-7.87 c 14.47,-8.39 26.35,-20 38.19,-31.66 a 33.1,33.1 0 0 0 10,-23.91 c 0.26,-17.39 5.54,-33.45 11.33,-49.49 4.81,-13.27 5.61,-26.65 -1,-39.45 -3.8,-7.36 -9.19,-13.88 -13.24,-21.14 -5.25,-9.38 -6.32,-19.28 -1.43,-29.31 3.12,-6.37 10.48,-9.13 16.47,-5.3 5,3.2 9.22,7.56 13.76,11.41 1,0.88 2,1.83 3.52,3.23 a 14.41,14.41 0 0 0 0.89,-2.68 12.17,12.17 0 0 0 -0.12,-2.38 z m -176,46.58 c -3.56,4.31 -6.44,9.38 -10.59,13 a 75.11,75.11 0 0 1 -17.21,11.45 c -5.7,2.69 -12.18,4 -18.46,5.13 -3.45,0.63 -7.18,-0.27 -10.77,-0.57 -1.47,-0.14 -3,-0.83 -4.38,-0.7 -6.72,0.56 -11.12,-3.37 -15.4,-7.64 a 30.6,30.6 0 0 1 -9.34,-22.49 c 0.15,-9.77 6.27,-16.31 14.4,-21 a 93.6,93.6 0 0 1 9.3,-4.49 c 1.12,-0.48 3.18,-1.09 3.53,-0.64 a 6.78,6.78 0 0 1 1.05,4 c 0,5.35 -0.79,10.74 -0.16,16 a 25.16,25.16 0 0 0 4.37,11 c 4.5,6.36 12.21,5.69 16.75,-0.62 7.12,-9.89 6.32,-20.77 4.51,-31.84 -0.85,-5.2 2.43,-10 7.77,-10.23 a 186.59,186.59 0 0 1 19.07,0.22 c 4,0.22 11.47,8.5 11.91,12.57 0.24,2.32 0.41,4.67 0.61,7 0.39,7.62 -2.22,14.1 -6.96,19.85 z"></path><path id="path8" style="fill:#1f140f" d="m 284.63,408.33035 c 2,0.78 3.18,0.93 3.94,1.6 8.18,7.33 16.39,14.18 20.3,25.47 3.35,9.73 13,14.16 22.7,15.25 20.94,2.35 37.2,13 52,26.87 a 13.34,13.34 0 0 1 2.12,2.13 c 1.37,2.05 2.6,4.18 3.88,6.28 -2.9,1.43 -6.21,4.54 -8.61,4 a 52.52,52.52 0 0 1 -15.65,-7.1 c -7.52,-4.91 -14.32,-10.88 -21.77,-15.88 a 17.94,17.94 0 0 0 -9.48,-2.75 c -15.8,0.06 -30.7,-4.45 -45.74,-8.33 -6.68,-1.72 -10.93,0.17 -12.91,6.66 -3.08,10.11 -10.62,15.39 -19.47,19.55 -1.21,0.57 -2.36,1.24 -3.56,1.83 -2.79,1.36 -4.49,1.27 -6.33,-2.11 a 72.88,72.88 0 0 0 -9.79,-13.21 59.15,59.15 0 0 1 -12.69,-22.46 c -3.3,-10.61 -11.21,-18 -20.79,-23.53 -3.29,-1.9 -7.12,-3.34 -9.64,-6 -5.13,-5.4 -4.88,-12.74 -4.59,-19.52 0.3,-7 2.46,-13.91 2.65,-20.91 0.36,-13.19 0.22,-26.42 -0.31,-39.6 -0.45,-11 -2.48,-22.1 1.75,-32.82 1.39,-3.52 3.36,-6.81 5.1,-10.2 1.53,-2.93 3.94,-5.73 4.38,-8.8 0.35,-2.45 -1.71,-5.22 -2.7,-7.85 a 43.09,43.09 0 0 0 -5.61,4.56 c -1.07,1.19 -1.39,3.05 -2.54,5.74 -1,-2.21 -1.78,-3.13 -1.93,-4.14 -3.18,-22.13 -2.77,-44.19 2.69,-65.89 3.36,-13.39 7.92,-26.47 11.72,-39.75 2.06,-7.24 3.56,-14.63 5.5,-21.9 4,-14.79 10.77,-28.39 18.53,-41.45 6.63,-11.19 14.11,-21.880001 21.25,-32.770001 a 9.68,9.68 0 0 1 1.68,-1.57 l 1.31,0.63 a 72.39,72.39 0 0 1 -3.07,7.48 c -9.36,17.170001 -10.76,35.680001 -9.1,54.610001 0.54,6.07 0.63,11.48 -2.32,17.31 -10.51,20.72 -12.62,43.13 -11.69,66 0.18,4.52 1.22,9.1 0.77,13.53 -0.39,3.8 -2.7,7.36 -3.54,11.17 -2.76,12.36 -6.33,24.68 -7.52,37.21 -1.32,13.95 -1.72,28.28 -0.06,42.15 1.66,13.87 6,27.65 10,41.2 2,6.59 5.51,12.91 9.34,18.68 2.25,3.39 6.24,5.87 9.89,8 9.69,5.64 17.12,12.85 21.25,23.67 1.83,4.79 5.65,9 9.2,12.91 2.62,2.88 6.88,1.84 7.85,-2.22 1.45,-6 1.58,-12.41 2.16,-18.65 0.12,-1.26 -0.25,-2.57 -0.53,-5 z"></path><path id="path10" style="fill:#1f140f" d="m 1275.99,275.43035 c -1.16,2.21 -3.18,4.36 -3.29,6.61 a 11.12,11.12 0 0 0 2.68,6.85 c 9.14,11 10.7,23.78 9.63,37.34 -0.78,9.84 -2.18,19.73 -1.91,29.58 0.3,11.5 2.42,22.94 3.11,34.44 a 98.12,98.12 0 0 1 -1.08,19.43 c -0.74,5 -5,7.5 -9.32,9.68 -12.12,6 -21.07,14.71 -25.32,28.23 -1.93,6.17 -6.14,11.73 -9.79,17.25 -3.65,5.52 -8,11.06 -12.25,16.36 a 4.69,4.69 0 0 1 -4.2,1.19 c -10.58,-4.12 -20.54,-8.94 -24.16,-21.19 -2.11,-7.17 -8.09,-9.27 -15.81,-6.74 -13.38,4.36 -26.91,7.92 -41.19,7.85 a 27.06,27.06 0 0 0 -10.64,2.16 h -21.94 v 15.71 a 72.11,72.11 0 0 1 -8.56,6.14 13.2,13.2 0 0 1 -14.31,-0.16 c -2.72,-1.72 -3.16,-3.44 -0.59,-5.95 10.31,-10.15 21.13,-19.76 34.65,-25.24 7.8,-3.16 16.34,-4.61 24.6,-6.58 9.06,-2.17 17.17,-6.17 20.42,-15.22 a 46.1,46.1 0 0 1 14,-19.75 c 2.68,-2.3 5.44,-4.52 8.16,-6.77 l 1.33,0.82 a 26.51,26.51 0 0 0 -0.3,5.09 c 0.64,6.06 0.77,12.31 2.5,18.07 1.4,4.67 5.33,5.11 8.4,1.25 a 83.66,83.66 0 0 0 8.94,-14.21 c 4.45,-8.74 10.21,-16.35 19.21,-20.45 8.06,-3.65 13.11,-9.76 16.6,-17.32 12.07,-26.19 17.35,-53.74 14.78,-82.49 -1.28,-14.46 -3.79,-28.82 -6,-43.18 -0.46,-2.92 -1.35,-6.14 -3.1,-8.4 -3.43,-4.36 -2.54,-9 -2.43,-13.83 0.24,-11.38 0.8,-22.84 -0.19,-34.14 a 112.64,112.64 0 0 0 -12.79,-43.94 c -1.08,-2 -1,-4.75 -1.07,-7.17 0,-10.52 0.4,-21.07 0.07,-31.58 -0.37,-11.93 -5,-22.690001 -10.49,-33.100001 a 31.89,31.89 0 0 1 -1.35,-3.39 c 0.39,-0.28 0.78,-0.54 1.17,-0.83 1.63,1.82 3.6,3.42 4.85,5.47 9.12,15 18.65,29.740001 27,45.160001 7.37,13.7 11.55,28.71 14.92,43.95 1.59,7.27 4.72,14.16 6.85,21.32 7.78,26.21 12.52,52.77 8.64,80.26 -0.48,3.43 -0.86,6.85 -1.3,10.28 l -1.62,0.07 c -0.8,-1.73 -1.27,-3.72 -2.46,-5.11 -1.32,-1.55 -3.32,-2.57 -5.05,-3.82 z"></path><path id="path12" style="fill:#1f140f" d="m 701.2,42.890349 c -7.39,6.43 -14.57,12.52 -21.52,18.88 -2.18,2 -3.5,4.91 -5.59,7.05 -2.53,2.6 -5.09,6 -8.27,7 -10.68,3.18 -15.61,11.47 -20,20.44 a 59.2,59.2 0 0 0 -6.12,22.500001 17.23,17.23 0 0 1 -9.27,14.5 c -6.87,3.83 -10.45,11 -12.35,18.27 a 173.15,173.15 0 0 0 -4.24,26.18 c -0.22,2.22 1.61,5.43 3.49,6.89 2.77,2.13 5.25,0 7.14,-2.5 8.93,-11.77 20.48,-20.82 34,-25.73 10,-3.61 12.28,-10.14 13.36,-18.7 2.09,-16.57 11.48,-28.55 24.12,-38.470001 0.83,-0.65 2,-0.85 3.86,-0.5 a 21.89,21.89 0 0 1 -2.2,3.260001 c -13.79,13.91 -19.16,30.61 -16.71,50 1.54,12.13 2.87,24.3 4.62,36.39 2.11,14.58 -2.42,27.41 -9.93,39.44 -3,4.79 -6.59,9.19 -10,13.73 -0.33,0.44 -1,0.59 -2.49,1.35 0.62,-1.88 1,-2.85 1.28,-3.84 2,-6.53 1.7,-12.63 -0.27,-19.49 -2.29,-8 -1.88,-16.84 -2.57,-25.31 -0.08,-1 0.66,-2.12 0.36,-2.95 a 31.09,31.09 0 0 0 -2.55,-4.56 c -1.37,1 -3.19,1.71 -4,3 -1.88,3.1 -2.57,7.21 -5,9.66 a 275.69,275.69 0 0 1 -23.5,21.6 c -4.38,3.52 -6.79,7 -6.46,12.57 0.41,6.85 1.47,13.85 0.51,20.54 -1.6,11 -4.56,21.82 -7,32.7 a 21.3,21.3 0 0 1 -3.52,8.18 c -0.54,-1.35 -1.45,-2.67 -1.58,-4.07 a 116.47,116.47 0 0 0 -13.23,-43.79 c -4.62,-8.73 -9.89,-17.12 -18.76,-22.44 -1,-0.61 -1.69,-1.85 -3,-3.29 8,-2.85 9.84,-8.27 9,-15.71 -0.39,-3.22 0.4,-7 4.44,-8.77 9.28,-4 12,-11.77 11.91,-21.22 -0.19,-12.08 -3.68,-23.41 -8,-34.45 -4,-10.19 -9,-20 -13,-30.22 -3.29,-8.38 -1.52,-15.190001 5.75,-20.370001 5.06,-3.61 11,-6.14 16.83,-8.44 2.63,-1.05 3.34,-2 3.1,-4.62 -0.88,-9.3 0.63,-17.35 10.88,-21.15 2.82,-1 3.81,-3.77 1.89,-6.66 a 66.87,66.87 0 0 0 -5.25,-7.3 c -2.77,-3.19 -2.17,-5.89 0.93,-8.08 a 18.39,18.39 0 0 1 6.69,-3.24 c 16.74,-3.43 33.37,-2.19 49.78,2 10.31,2.66 20.5,5.79 30.73,8.75 a 6,6 0 0 1 1.77,0.95 z"></path><path id="path14" style="fill:#1f140f" d="m 863.57,293.00035 c -0.85,-2.79 -1.68,-5.58 -2.56,-8.37 -5.15,-16.39 -9,-32.92 -6.48,-50.32 1.06,-7.14 -1.35,-11.78 -8.08,-15.91 -11.59,-7.12 -21.49,-16.45 -26.4,-29.91 -0.5,-1.35 -2.92,-2 -4.45,-3 -0.75,1.66 -2,3.28 -2.17,5 -0.56,8.14 -0.54,16.34 -1.3,24.47 -0.45,4.88 -2.49,9.61 -2.78,14.47 -0.23,3.63 1.21,7.35 2.05,11.81 -1.78,-1.41 -3.33,-2.2 -4.24,-3.42 -13.41,-18.29 -21.68,-37.56 -16.22,-61.29 2.9,-12.6 3.27,-25.92 3.59,-38.95 0.33,-13.5 -6,-24.83 -14.73,-34.8 -1.53,-1.75 -3,-3.540001 -4.5,-5.340001 -0.17,-0.2 0,-0.63 0,-1.6 1.12,0.37 2.26,0.43 3,1 13.73,10.600001 23.57,23.520001 25.45,41.520001 0.74,7.12 3.31,12.77 11.48,15.74 14.38,5.23 26.11,14.71 35.89,26.6 a 8.3,8.3 0 0 0 6.71,2.39 c 1.5,-0.26 3.64,-3.41 3.56,-5.19 -0.6,-13.39 -1.54,-26.85 -9.27,-38.49 -1.9,-2.86 -4.3,-5.81 -7.19,-7.5 -7.11,-4.17 -9.09,-10.58 -9.84,-18.07 A 54.72,54.72 0 0 0 817.25,77.950349 c -2.45,-2.23 -6.33,-2.8 -9.3,-4.56 a 20,20 0 0 1 -6.08,-5.08 c -7.07,-9.66 -14.65,-18.68 -25.76,-24 a 3.23,3.23 0 0 1 -1.62,-2.25 2.89,2.89 0 0 1 1.71,-2.05 c 24.93,-8.06 50,-15.09 76.69,-11.22 a 28.36,28.36 0 0 1 8.54,2.75 c 4.8,2.41 5.28,5.37 2.14,9.7 -1.47,2 -2.72,4.22 -4.32,6.12 -3.22,3.82 -1.08,6.82 2.16,8 8.86,3.19 10.94,10.16 10.09,18 -0.6,5.59 2.09,6.65 6.17,8.28 4.87,2 9.88,4.28 13.9,7.58 8.2,6.75 9.41,14.470001 4.39,23.780001 a 189.63,189.63 0 0 0 -18.14,46.94 c -2.2,9.47 -4.12,19.64 2.09,28.67 a 16.35,16.35 0 0 0 6.69,5.79 c 4.85,2 6.37,5.87 5.9,10 -0.78,6.83 0.92,11.81 7.22,14.94 0.51,0.26 0.79,1 1.18,1.5 -24.49,17.89 -30.73,44.74 -35.55,72.3 -0.59,-0.05 -1.17,-0.1 -1.75,-0.17 z"></path><path id="path16" style="fill:#1f140f" d="m 1020.45,20.780349 c 1.35,-0.66 2.22,-1.48 3,-1.4 8.89,0.82 17.87,2.66 22.57,10.91 4.93,8.64 12.27,10.93 20.72,9.56 13.18,-2.12 18.44,5.88 18.92,17.19 0.56,13.09 -5.54,23.46 -13.94,32.24 -8.4,8.78 -11.53,19.180001 -11.54,30.550001 0,10.27 -5,17.17 -11.8,23.85 -5.42,5.31 -10.81,10.95 -14.83,17.31 -4.02,6.36 -9.39,8.95 -15.84,10.18 -5.21,1 -10.65,2.48 -17.46,0.44 2,-1.38 2.77,-2.25 3.7,-2.49 13.54,-3.48 23.09,-12.27 31.15,-23.13 3.35,-4.54 3.07,-8.93 0,-13.47 -2.81,-4.21 -7.15,-5.09 -11.48,-4.51 -8.94,1.19 -16.56,5.21 -23.82,10.81 -15.33,11.83 -31.22,23 -47,34.13 -1.56,1.11 -5.13,1.48 -6.31,0.48 -1.48,-1.26 -2.12,-4.33 -2,-6.55 0.45,-7.39 0.64,-14.51 -2.61,-21.61 -1.95,-4.25 -2.62,-9.31 -2.88,-14.07 -0.41,-7.67 -0.15,-15.41 0.14,-23.1 0.08,-2.49 1.16,-4.94 1.77,-7.41 l 1.32,0.18 c 0.75,8.71 1,17.49 2.41,26.08 1.3,7.6 4,14.95 6,22.45 a 56.43,56.43 0 0 1 1.36,7.88 c 0.5,4.49 2,5.81 6.27,3.92 a 48.06,48.06 0 0 0 10.58,-6.57 100.37,100.37 0 0 0 12,-11.36 c 2.23,-2.51 3.29,-6 5.23,-8.85 2.87,-4.19 5.49,-8.83 9.27,-12 4.12,-3.49 6.08,-7.39 5.08,-12.22 -1.38,-6.65 -3.78,-13.100001 -5.53,-19.690001 a 121.81,121.81 0 0 1 -3.44,-15.05 c -2.13,-15.77 -11.66,-25 -26,-30.08 -1.1,-0.39 -2.24,-0.68 -3.3,-1.17 -1.91,-0.9 -3.78,-1.93 -6.15,-3.15 1,-0.62 1.51,-1.25 2,-1.22 11.69,1.14 23.09,3.12 30.28,13.89 2.59,3.88 4.13,8.52 7,12.08 a 34.87,34.87 0 0 0 9.55,7.59 c 3.68,2.17 4.74,4.76 2.81,9.09 -3.9,8.77 -3.5,17.21 2.36,25.080001 3.5,4.71 6.72,6 10.92,2.29 7.81,-7 14.72,-14.940001 22,-22.540001 a 2.54,2.54 0 0 0 0.5,-1.88 c -1.28,-7.26 1,-13.18 5.48,-19 3.56,-4.63 1.88,-10.51 -2.88,-14.16 -5.85,-4.47 -10.35,-9.49 -12.08,-17.16 a 16.68,16.68 0 0 0 -10.92,-12.28 12.93,12.93 0 0 1 -2.59,-2 z"></path><path id="path18" style="fill:#1f140f" d="m 518.43,43.260349 c -7.22,3.44 -14.45,6.09 -20.81,10.11 -8.16,5.16 -12,13.32 -13.89,22.9 -1.89,9.74 -4.88,19.3 -7.72,28.840001 -2.41,8.06 -2.66,15 5.71,20.16 2.68,1.65 5.6,4.77 6.16,7.65 2,10.25 9.77,15.72 16.66,21.89 a 70.69,70.69 0 0 0 11.57,7.93 c 4.23,2.51 5.94,1.08 7,-3.64 1.64,-7.07 4.83,-13.83 5.95,-21 2,-12.33 2.81,-24.84 4.18,-37.75 1,3.27 2.63,6.44 2.76,9.68 0.38,9.19 0.43,18.44 0,27.63 a 25.07,25.07 0 0 1 -3.08,10.48 c -3.37,6.21 -2.5,12.64 -2.4,19.14 0,2.49 -0.22,6.83 -1.24,7.11 -2.75,0.77 -6.46,0.69 -8.92,-0.65 a 136,136 0 0 1 -17.13,-11.37 c -10.1,-7.71 -19.8,-15.95 -29.92,-23.63 -6.85,-5.19 -14.47,-9 -23.38,-9.28 -5,-0.16 -8.56,1.86 -10.95,6.42 -2.26,4.28 -1.54,8 1.09,11.69 a 65.33,65.33 0 0 0 31.43,24 c 1,0.38 2,0.94 3.52,1.7 -1.18,0.76 -1.9,1.63 -2.4,1.52 -8.41,-1.87 -16.95,-3.39 -25.1,-6.07 -2.65,-0.87 -4.24,-4.87 -6.39,-7.38 -4.31,-5 -8.25,-10.48 -13.12,-14.91 -7.45,-6.78 -12.68,-14 -13.16,-24.75 -0.35,-7.81 -2.62,-15.79 -5.52,-23.120001 -1.81,-4.57 -6.59,-7.88 -9.66,-12 -7.12,-9.68 -12.09,-20 -9.68,-32.62 1.81,-9.49 6.46,-13.13 16.15,-12.14 9.86,1 18.05,-0.89 23.44,-10.55 1.76,-3.15 5.82,-5.52 9.35,-7.06 4.7,-2.05 9.9,-2.95 14.89,-4.34 0.26,0.58 0.51,1.15 0.78,1.71 -1.85,1.51 -4,2.78 -5.49,4.57 -3,3.51 -6.93,7 -8,11.07 a 28.56,28.56 0 0 1 -11.54,16.35 c -5.57,4.05 -6.93,11.13 -2.36,16.18 3.95,4.35 5,9.11 4.84,14.71 a 11.52,11.52 0 0 0 2.39,7.08 c 5,6 10.08,12.170001 16,17.310001 8.54,7.47 15.58,4.57 18.51,-6.6 a 25.35,25.35 0 0 0 -1.9,-18.940001 c -1.8,-3.46 -0.66,-6.12 2.56,-7.44 8.54,-3.46 12.69,-10.64 16,-18.42 4.73,-11.08 22.4,-16.6 30.55,-15.27 a 7.94,7.94 0 0 1 2.26,1.11 z"></path><path id="path20" style="fill:#1f140f" d="m 358.45,124.26035 a 93.3,93.3 0 0 1 -9.31,-3.28 c -14,-6.53 -28.42,-12.38 -41.72,-20.12 -11.81,-6.870001 -22.14,-15.900001 -28.37,-28.930001 -9.53,-19.93 -6.75,-43.94 7.84,-60.4 2.44,-2.7599998 5,-5.4099998 7.72,-7.9099998 3,-2.80999996 5.6,-2.47 7.16,1.13 2.32,5.3899998 5.74,8.9999998 11.66,10.6199998 5.17,1.41 6.16,6.73 8,10.93 3.26,7.52 8,12.52 16.72,13.83 9.25,1.41 16.94,6.29 19.81,15.61 2.73,8.93 2.15,17.77 -4.86,25.31 -12.61,13.54 -11.85,25.590001 2.06,38.000001 1.35,1.2 2.66,2.44 4,3.66 -0.24,0.53 -0.47,1.06 -0.7,1.59 z"></path><path id="path22" style="fill:#1f140f" d="m 1116.94,120.32035 a 12.11,12.11 0 0 1 1.81,-2.07 c 14.48,-10.48 16.36,-24.520001 4.35,-37.600001 -6.38,-7 -8.2,-14.63 -6.62,-23.57 1.49,-8.51 8.58,-16.4 17.18,-17.53 11.78,-1.56 18.55,-8.21 22,-19.07 1.12,-3.55 3.22,-6 7.14,-6.94 5,-1.25 8.18,-4.9199998 10.3,-9.5599998 2.26,-4.93999996 4,-5.11 8.09,-1.46 16.24,14.4599998 23.5,32.1399998 19.53,53.8799998 -2.44,13.36 -9.3,24.11 -19.52,32.9 -13.69,11.780001 -29.25,20.270001 -46.17,26.430001 -3.9,1.41 -7.65,3.25 -11.55,4.69 a 47.92,47.92 0 0 1 -6,1.41 l -0.51,-1.51 z"></path><path id="path24" style="fill:#1f140f" d="m 396.16,496.93035 -5.35,16 c -1.6,0.4 -3.22,0.76 -4.87,1.06 a 112.3,112.3 0 0 1 -24,1.44 c -8.28,-0.24 -16.54,-1.77 -24.81,-2.73 -0.06,-0.53 -0.12,-1.07 -0.19,-1.59 1.88,-0.44 3.79,-1.35 5.65,-1.24 15.64,0.87 29.82,-4.61 44.13,-9.78 3.13,-1.1 6.26,-2.2 9.44,-3.16 z"></path><path id="path26" style="fill:#1f140f" d="m 495.57,433.51035 c -3.32,3 -6.66,5.92 -9.94,8.94 -7.92,7.3 -15.73,14.69 -23.6,22 h -8.94 c 1.63,-2.39 3.17,-4.89 4.65,-7.5 7.45,-13.2 19.4,-21.39 34,-25.48 0.82,-0.23 1.84,0.28 2.76,0.41 0.33,0.57 0.69,1.1 1.07,1.63 z"></path><path id="path28" style="fill:#1f140f" d="m 1022.63,463.07035 q -4.92,-0.21 -10.23,-0.23 c -4.82,-4.58 -9.62,-9.21 -14.47,-13.78 -5.11,-4.84 -10.26,-9.63 -15.3,-14.53 a 17.3,17.3 0 0 1 -2.09,-3.34 c 0.4,-0.59 0.8,-1.2 1.2,-1.8 5.27,2.07 10.81,3.68 15.78,6.33 11.52,6.17 18.31,16.72 25.11,27.35 z"></path><path id="path30" style="fill:#1f140f" d="m 1109.23,505.35035 c 0.42,0.11 0.85,0.2 1.28,0.3 v 7.61 a 124.28,124.28 0 0 1 -18.83,-0.57 115.91,115.91 0 0 0 -3.08,-13.23 c 6.84,2.11 13.69,4.15 20.63,5.89 z"></path><path id="path32" style="fill:#1f140f" d="m 467.38,328.53035 c -3.35,-1.95 -6.19,-3.84 -9.23,-5.32 -5.48,-2.66 -9.43,-0.25 -9.09,5.86 0.25,4.44 1.48,8.82 2.24,13.23 0.26,1.55 0.42,3.11 0.81,6 -2.17,-1.23 -3.55,-1.58 -4.19,-2.44 -3.7,-5.11 -7.94,-10 -10.64,-15.61 -4.06,-8.48 -10.83,-13.85 -18.87,-17.17 -18.84,-7.82 -29.56,-22.77 -37.69,-40.33 a 69.86,69.86 0 0 1 -2.4,-7 l 1.57,-0.65 c 1.66,2.54 3.28,5.12 5,7.63 9.7,14.21 23.37,23 39.18,29.09 11.3,4.38 22.51,9.06 33.43,14.3 6.39,3.08 9.09,7.29 9.88,12.38 z"></path><path id="path34" style="fill:#1f140f" d="m 1007.1,325.63035 c 3.85,-7.53 10.51,-12.19 18,-15.44 11.44,-5 23.36,-8.82 34.75,-13.87 15,-6.68 27,-17 34.45,-32.05 0.18,-0.37 0.76,-0.56 1.88,-1.33 0.19,1.61 0.81,3 0.41,3.88 -6.7,14.29 -13.85,28.38 -27.34,37.59 -6.16,4.22 -13,7.37 -19.56,11.08 -5.9,3.36 -9.65,8.45 -12.26,14.7 a 40,40 0 0 1 -12.63,16.07 l -1.39,-0.49 c 0.19,-1.81 0.29,-3.63 0.6,-5.41 0.68,-3.93 1.91,-7.83 2,-11.76 0.07,-2.38 -1,-6.44 -2.39,-6.89 -2.65,-0.82 -6.1,0 -8.94,1 -2.39,0.8 -4.4,2.74 -6.58,4.19 l -1,-1.25 z"></path><path id="path36" style="fill:#1f140f" d="m 973.2,465.36035 -2.7,0.44 c -0.2,-0.85 -0.34,-1.73 -0.53,-2.58 l 1.41,-0.63 z"></path><path id="path38" style="fill:#1f140f" d="m 1050.73,546.80035 c 0.06,1.91 0.08,3.9 0.11,6 -15.34,-1 -28.82,-6.77 -40.27,-19.12 a 165.47,165.47 0 0 1 -22.54,-31.34 c 2.91,-0.36 6.3,-0.65 10.23,-0.83 4.89,6.87 9.86,13.67 15.07,20.29 a 71.94,71.94 0 0 0 37.4,25 z"></path><path id="path40" style="fill:#1f140f" d="m 449.65,547.55035 a 46,46 0 0 1 -7.47,3.37 61.2,61.2 0 0 1 -20.16,3.82 l 2.05,-6.29 a 69.83,69.83 0 0 0 22.43,-10.39 z"></path><path id="path42" style="fill:#1f140f" d="m 505.57,465.05035 c -1,2.72 -1.76,5.55 -3,8.16 -6.41,13.41 -12.47,27.07 -20.36,39.66 l -3.96,-11.61 c 8.27,-11.88 16.32,-23.94 24.56,-35.84 a 5.91,5.91 0 0 1 1.11,-0.92 z"></path><path id="path44" style="fill:#e0040b" d="m 149.97,597.34035 q 0,37 -14.29,47.84 -14.29,10.84 -63,10.83 -43.83,0 -58.19,-10.62 -14.36,-10.62 -14.35,-43 l -0.14,-6.81 h 34.3 l 0.14,4 q 0,19.44 6.8,23.81 6.8,4.37 37.15,4.36 23.7,0 30.22,-5 6.52,-5 6.54,-23.27 c 0,-9 -1.67,-15 -5,-17.9 -3.33,-2.9 -10.45,-4.75 -21.44,-5.38 l -19.44,-1.31 q -44.1,-2.58 -56.35,-12.26 -12.25,-9.68 -12.24,-41.5 0,-32.54 14.77,-43.35 14.77,-10.81 59,-10.82 41.92,0 56.48,9.94 14.56,9.94 14.56,38.79 v 7.07 h -34.45 c -0.18,-1.72 -0.26,-3 -0.26,-3.8 q -1.21,-15.7 -6.95,-19.7 -5.74,-4 -26.95,-4 -25,0 -32.73,4.61 -7.73,4.61 -7.68,19.49 0,17.55 6.25,21.09 6.25,3.54 41.39,5.46 41.49,2.29 53.69,11.83 12.2,9.54 12.17,39.6 z"></path><polygon transform="translate(-0.01,3.4924429e-4)" id="polygon46" style="fill:#e0040b" points="296.83,654.37 296.83,574.08 209.72,574.08 209.72,654.37 174.48,654.37 174.48,468.59 209.72,468.59 209.72,544.41 296.83,544.41 296.83,468.59 332.07,468.59 332.07,654.37 "></polygon><path id="path48" style="fill:#e0040b" d="m 479.29,517.26035 v 0 l -4,-11.76 -12.46,-36.89 h -52.91 l -9,26.95 v 0 l -5.35,16.09 -47.45,142.72 h 37.3 l 11.57,-35.65 h 80.16 l 11.84,35.65 h 36.58 z m -74,75.46 12.47,-38.19 1.64,-5 17.47,-53.54 13.11,39.5 3.27,9.88 15.73,47.38 z"></path><path id="path50" style="fill:#e0040b" d="m 714.1,468.59035 v 185.78 h -59.75 l -53.09,-101.94 q -3.93,-7.62 -12.37,-26.67 l -6,-13.34 -5.85,-13.34 h -1.36 l 0.53,12.25 0.42,12.12 0.27,24.35 v 106.57 h -35.25 v -185.78 h 59.75 l 48.32,94.18 q 6.39,12.49 14.85,30.36 l 7.06,15.13 7.08,15.23 h 1.23 l -0.41,-12 -0.42,-12 -0.27,-24 v -107 z"></path><path id="path52" style="fill:#e0040b" d="m 892.57,485.61035 q -15.57,-17 -54.5,-17 h -91.31 v 185.76 h 92.41 q 43.95,0 56.48,-19.8 12.53,-19.8 12.52,-89.31 0,-42.66 -15.6,-59.65 z m -27.61,127.46 q -7.42,11.63 -32.74,11.63 H 782 v -126.44 h 52.4 q 24.64,0 31.3,11.16 6.66,11.16 6.68,52.27 0,39.74 -7.42,51.38 z"></path><path id="path54" style="fill:#e0040b" d="m 1087.36,512.01035 a 97.27,97.27 0 0 0 -3.58,-14.08 v 0 q -3.07,-9 -7.53,-14.14 -12.37,-14.28 -50.81,-16.43 c -2.77,-0.16 -5.64,-0.26 -8.62,-0.33 v 0 c -1.88,0 -3.79,0 -5.75,0 a 246.66,246.66 0 0 0 -35.4,2.19 c -1.23,0.18 -2.44,0.37 -3.61,0.58 q -23.75,4.1 -32.44,14.24 -14.56,17 -14.56,83.43 0,55.82 14.83,72.21 14.83,16.39 65.47,16.4 56.2,0 70.84,-16.61 14.64,-16.61 14.63,-80.43 -0.02,-28.46 -3.47,-47.03 z m -38.88,104.59 q -6.54,9.2 -39.33,9.19 -34.29,0 -41.3,-8.17 -7.01,-8.17 -7,-48.17 0,-54 6,-63.16 3.75,-5.7 19.07,-7.84 4.3,-0.6 9.54,-0.92 c 3.92,-0.23 8.22,-0.36 12.9,-0.36 q 34.31,0 40.49,8.51 5.28,7.25 6.06,42.19 c 0,1.65 0.07,3.35 0.08,5.1 0,2.54 0.06,5.16 0.06,7.89 q -0.03,46.56 -6.57,55.74 z"></path><path id="path56" style="fill:#e0040b" d="m 1287.06,468.59035 v 185.78 h -59.75 l -53.07,-101.94 q -4,-7.62 -12.39,-26.67 l -6,-13.34 -5.85,-13.34 h -1.36 l 0.55,12.25 0.4,12.12 0.27,24.35 v 106.57 h -35.24 v -185.78 h 59.74 l 48.31,94.18 q 6.41,12.53 14.83,30.36 l 7.07,15.13 7.08,15.23 h 1.22 l -0.41,-12 -0.4,-12 -0.28,-24 v -107 z"></path><path id="path58" style="fill:#e0040b" d="m 1475.15,592.44035 q 0,40.3 -15.18,51.93 -15.18,11.63 -67.7,11.64 -48.2,0 -63.84,-15.52 -15.64,-15.52 -15.65,-63.23 0,-61 6.27,-77 7.74,-19.59 23.54,-26.4 15.8,-6.81 53.62,-6.81 49.53,0 64,10.54 14.47,10.54 14.36,46.67 h -35.66 q -0.94,-18.24 -7.95,-22.66 -7.01,-4.42 -35.19,-4.43 -30.62,0 -38.86,7.63 -8.24,7.63 -8.23,35.79 l -0.11,18.67 0.27,23.82 q 0,27.63 8.16,35.17 8.16,7.54 37.84,7.56 28.85,0 36.67,-6.4 7.82,-6.4 7.83,-30.22 l 0.14,-7.61 h -46.69 v -26 h 81.78 z"></path><path id="path60" style="fill:#1f140f" d="m 98.67,707.97035 h 17.19 v 91.29 H 98.67 Z"></path><path id="path62" style="fill:#1f140f" d="m 129.33,733.16035 h 14.79 v 9.2 h 0.33 a 19.83,19.83 0 0 1 7.66,-8.31 19.23,19.23 0 0 1 9.64,-2.68 23.09,23.09 0 0 1 10.24,2 15.6,15.6 0 0 1 6.29,5.5 23,23 0 0 1 3.23,8.56 62,62 0 0 1 0.93,11.19 v 40.64 h -15.55 v -37.34 q 0,-8.17 -2.24,-12.21 -2.24,-4.04 -7.72,-4 -6.36,0 -9.2,4.41 -2.84,4.41 -2.85,14.51 v 34.63 h -15.55 z"></path><path id="path64" style="fill:#1f140f" d="m 206.31,777.77035 a 11.31,11.31 0 0 0 1,5 10.29,10.29 0 0 0 2.69,3.46 10.84,10.84 0 0 0 3.78,2 15.21,15.21 0 0 0 4.43,0.64 14.22,14.22 0 0 0 3.45,-0.45 10.71,10.71 0 0 0 3.28,-1.41 8,8 0 0 0 2.47,-2.55 7.55,7.55 0 0 0 1,-4 5.4,5.4 0 0 0 -1.2,-3.52 10.65,10.65 0 0 0 -3.45,-2.62 32.49,32.49 0 0 0 -5.53,-2.11 c -2.19,-0.64 -4.67,-1.29 -7.45,-2 a 66.26,66.26 0 0 1 -6.62,-2.11 21.35,21.35 0 0 1 -5.75,-3.19 14.81,14.81 0 0 1 -4.05,-5 16,16 0 0 1 -1.53,-7.35 22.71,22.71 0 0 1 2.13,-10.42 17.07,17.07 0 0 1 5.64,-6.52 22.55,22.55 0 0 1 7.88,-3.33 42.51,42.51 0 0 1 9,-0.95 38.82,38.82 0 0 1 8.93,1 21.73,21.73 0 0 1 7.72,3.45 19.43,19.43 0 0 1 5.64,6.47 24.36,24.36 0 0 1 2.68,10.16 h -14.78 c -0.22,-3.49 -1.35,-5.86 -3.4,-7.09 a 13.64,13.64 0 0 0 -7.22,-1.86 24.61,24.61 0 0 0 -2.85,0.19 8.56,8.56 0 0 0 -2.79,0.83 5.94,5.94 0 0 0 -2.14,1.86 5.5,5.5 0 0 0 -0.87,3.26 5.32,5.32 0 0 0 1.53,4 11.28,11.28 0 0 0 4,2.49 44.69,44.69 0 0 0 5.64,1.73 c 2.12,0.51 4.28,1.07 6.47,1.66 a 57.6,57.6 0 0 1 6.62,2.18 21,21 0 0 1 5.75,3.38 15.8,15.8 0 0 1 4,5.25 17.51,17.51 0 0 1 1.53,7.73 24,24 0 0 1 -2.24,10.93 20,20 0 0 1 -5.86,7.1 22.92,22.92 0 0 1 -8.27,3.83 39.15,39.15 0 0 1 -9.47,1.15 40.36,40.36 0 0 1 -9.64,-1.15 22.69,22.69 0 0 1 -8.37,-3.9 21.13,21.13 0 0 1 -6,-7.22 25.31,25.31 0 0 1 -2.57,-11 z"></path><path id="path66" style="fill:#1f140f" d="M 306.18,799.26035 H 291.4 v -9.2 h -0.33 a 19.85,19.85 0 0 1 -7.67,8.31 19.22,19.22 0 0 1 -9.63,2.68 23.06,23.06 0 0 1 -10.24,-2 15.63,15.63 0 0 1 -6.3,-5.5 23.13,23.13 0 0 1 -3.23,-8.56 62,62 0 0 1 -0.93,-11.19 v -40.64 h 15.55 v 37.33 q 0,8.17 2.25,12.21 c 1.49,2.68 4.07,4 7.72,4 q 6.35,0 9.19,-4.41 2.84,-4.41 2.85,-14.51 v -34.62 h 15.55 z"></path><path id="path68" style="fill:#1f140f" d="m 318.44,733.16035 h 14.68 v 9 h 0.22 a 23.71,23.71 0 0 1 7.39,-7.93 17.73,17.73 0 0 1 9.91,-2.81 19.7,19.7 0 0 1 9.8,2.49 q 4.44,2.49 6.73,8.5 a 26.25,26.25 0 0 1 6.85,-7.67 16.29,16.29 0 0 1 10.24,-3.32 26.24,26.24 0 0 1 8.32,1.27 16.27,16.27 0 0 1 6.57,4.1 19.09,19.09 0 0 1 4.27,7.35 34.39,34.39 0 0 1 1.53,10.93 v 44.19 H 389.4 v -37.47 q 0,-3.31 -0.22,-6.26 a 14.82,14.82 0 0 0 -1.2,-5.11 8.18,8.18 0 0 0 -2.9,-3.46 9.28,9.28 0 0 0 -5.2,-1.27 8.83,8.83 0 0 0 -5.31,1.47 10,10 0 0 0 -3.18,3.83 17,17 0 0 0 -1.53,5.37 47.11,47.11 0 0 0 -0.39,6.07 v 36.83 h -15.55 v -37.08 c 0,-1.88 0,-3.79 -0.11,-5.76 a 18.72,18.72 0 0 0 -0.93,-5.37 8,8 0 0 0 -2.73,-3.89 9.17,9.17 0 0 0 -5.64,-1.47 9.88,9.88 0 0 0 -3,0.57 9.36,9.36 0 0 0 -3.45,2.17 12.73,12.73 0 0 0 -2.9,4.61 21.27,21.27 0 0 0 -1.21,7.86 v 38.36 h -15.51 z"></path><path id="path70" style="fill:#1f140f" d="m 415.47,766.26035 a 46.59,46.59 0 0 1 2.1,-14.37 31.86,31.86 0 0 1 5.91,-11 26.51,26.51 0 0 1 9.2,-7 28.24,28.24 0 0 1 12,-2.49 28.62,28.62 0 0 1 12.1,2.49 26.46,26.46 0 0 1 9.26,7 32.2,32.2 0 0 1 5.91,11 46.59,46.59 0 0 1 2.1,14.37 46.06,46.06 0 0 1 -2.08,14.32 32.33,32.33 0 0 1 -5.91,10.93 26.46,26.46 0 0 1 -9.26,7 28.62,28.62 0 0 1 -12.1,2.49 28.24,28.24 0 0 1 -12,-2.49 26.51,26.51 0 0 1 -9.2,-7 32,32 0 0 1 -5.93,-10.92 46.06,46.06 0 0 1 -2.1,-14.33 z m 15.54,0 a 44.72,44.72 0 0 0 0.66,7.73 22.73,22.73 0 0 0 2.25,6.78 13,13 0 0 0 4.21,4.79 11.35,11.35 0 0 0 6.57,1.79 11.64,11.64 0 0 0 6.63,-1.79 12.86,12.86 0 0 0 4.27,-4.79 22.44,22.44 0 0 0 2.24,-6.78 44.72,44.72 0 0 0 0.66,-7.73 46,46 0 0 0 -0.66,-7.8 21.81,21.81 0 0 0 -2.24,-6.78 13.6,13.6 0 0 0 -4.27,-4.79 11.43,11.43 0 0 0 -6.63,-1.85 11.15,11.15 0 0 0 -6.57,1.85 13.73,13.73 0 0 0 -4.21,4.79 22.08,22.08 0 0 0 -2.25,6.78 46,46 0 0 0 -0.66,7.8 z"></path><path id="path72" style="fill:#1f140f" d="m 496.17,777.77035 a 11.18,11.18 0 0 0 1,5 10.27,10.27 0 0 0 2.68,3.46 11,11 0 0 0 3.78,2 15.23,15.23 0 0 0 4.44,0.64 14.21,14.21 0 0 0 3.44,-0.45 10.77,10.77 0 0 0 3.29,-1.41 7.9,7.9 0 0 0 2.46,-2.55 7.55,7.55 0 0 0 1,-4 5.36,5.36 0 0 0 -1.21,-3.52 10.71,10.71 0 0 0 -3.44,-2.62 32.49,32.49 0 0 0 -5.53,-2.11 c -2.19,-0.64 -4.68,-1.29 -7.45,-2 a 67.29,67.29 0 0 1 -6.63,-2.11 21.5,21.5 0 0 1 -5.75,-3.19 14.81,14.81 0 0 1 -4,-5 16,16 0 0 1 -1.53,-7.35 22.58,22.58 0 0 1 2.14,-10.42 17.13,17.13 0 0 1 5.63,-6.52 22.6,22.6 0 0 1 7.89,-3.33 42.44,42.44 0 0 1 9,-0.95 38.73,38.73 0 0 1 8.92,1 21.57,21.57 0 0 1 7.72,3.45 19.21,19.21 0 0 1 5.64,6.46 24.36,24.36 0 0 1 2.69,10.16 h -14.78 c -0.22,-3.49 -1.35,-5.86 -3.39,-7.09 a 13.7,13.7 0 0 0 -7.23,-1.86 24.76,24.76 0 0 0 -2.85,0.19 8.63,8.63 0 0 0 -2.79,0.83 5.91,5.91 0 0 0 -2.13,1.86 5.43,5.43 0 0 0 -0.88,3.26 5.36,5.36 0 0 0 1.53,4 11.33,11.33 0 0 0 4,2.49 43.69,43.69 0 0 0 5.64,1.73 c 2.12,0.51 4.27,1.07 6.46,1.66 a 58.41,58.41 0 0 1 6.63,2.18 20.89,20.89 0 0 1 5.74,3.38 16,16 0 0 1 4.06,5.25 17.51,17.51 0 0 1 1.53,7.73 23.88,23.88 0 0 1 -2.32,10.94 19.94,19.94 0 0 1 -5.85,7.1 23,23 0 0 1 -8.27,3.83 39.21,39.21 0 0 1 -9.47,1.15 40.3,40.3 0 0 1 -9.64,-1.15 22.81,22.81 0 0 1 -8.38,-3.9 21.22,21.22 0 0 1 -6,-7.22 25.17,25.17 0 0 1 -2.57,-11 z"></path><path id="path74" style="fill:#1f140f" d="m 573.37,733.16035 h 14.78 v 8.43 h 0.22 a 18.44,18.44 0 0 1 7.23,-7.79 19.52,19.52 0 0 1 9.63,-2.43 21.64,21.64 0 0 1 11.5,2.94 25.12,25.12 0 0 1 8,7.8 35.85,35.85 0 0 1 4.71,11.31 58.29,58.29 0 0 1 1.53,13.49 52.62,52.62 0 0 1 -1.53,12.78 35.14,35.14 0 0 1 -4.66,10.87 25.06,25.06 0 0 1 -7.77,7.61 20.4,20.4 0 0 1 -10.9,2.87 19.23,19.23 0 0 1 -9.64,-2.55 19.93,19.93 0 0 1 -7.33,-7.42 h -0.22 v 31.45 h -15.55 z m 28.58,54.2 a 10.94,10.94 0 0 0 6.41,-1.79 13.67,13.67 0 0 0 4.16,-4.66 21.53,21.53 0 0 0 2.24,-6.65 45.55,45.55 0 0 0 0.66,-7.86 43,43 0 0 0 -0.71,-7.8 22.82,22.82 0 0 0 -2.36,-6.84 14.44,14.44 0 0 0 -4.21,-4.86 10.55,10.55 0 0 0 -6.3,-1.85 10.73,10.73 0 0 0 -6.41,1.85 14.11,14.11 0 0 0 -4.16,4.79 22.1,22.1 0 0 0 -2.24,6.84 47.14,47.14 0 0 0 -0.66,7.87 42.71,42.71 0 0 0 0.71,7.86 22.38,22.38 0 0 0 2.3,6.65 13.67,13.67 0 0 0 4.16,4.66 10.91,10.91 0 0 0 6.41,1.79 z"></path><path id="path76" style="fill:#1f140f" d="m 639.62,753.48035 a 23.67,23.67 0 0 1 2.74,-10.61 20.15,20.15 0 0 1 6.13,-6.77 24.46,24.46 0 0 1 8.32,-3.65 41.12,41.12 0 0 1 9.42,-1.08 54.32,54.32 0 0 1 8.65,0.7 23.81,23.81 0 0 1 8,2.75 16.45,16.45 0 0 1 5.92,5.75 18,18 0 0 1 2.3,9.59 v 34.39 a 81.11,81.11 0 0 0 0.43,8.57 17.29,17.29 0 0 0 1.54,6.13 h -15.78 a 29,29 0 0 1 -0.71,-3.13 31.22,31.22 0 0 1 -0.39,-3.26 20.49,20.49 0 0 1 -8.76,6.33 29.72,29.72 0 0 1 -10.29,1.85 23,23 0 0 1 -7.56,-1.21 17.28,17.28 0 0 1 -6.13,-3.65 16.55,16.55 0 0 1 -4.11,-6.13 23.88,23.88 0 0 1 -1.47,-8.79 22.57,22.57 0 0 1 1.64,-9.27 15.18,15.18 0 0 1 4.38,-5.82 19.11,19.11 0 0 1 6.19,-3.26 57.27,57.27 0 0 1 7.06,-1.73 q 3.61,-0.63 6.9,-1 a 34.37,34.37 0 0 0 5.86,-1.15 9.89,9.89 0 0 0 4.1,-2.24 5.64,5.64 0 0 0 1.57,-4.33 11,11 0 0 0 -0.83,-4.67 6.58,6.58 0 0 0 -2.19,-2.68 7.77,7.77 0 0 0 -3.17,-1.28 22.69,22.69 0 0 0 -3.89,-0.32 10.66,10.66 0 0 0 -7.17,2.3 c -1.79,1.54 -2.83,4.09 -3.12,7.67 z m 35.95,13.43 a 6.9,6.9 0 0 1 -2.47,1.6 21.8,21.8 0 0 1 -3.17,1 c -1.14,0.26 -2.34,0.47 -3.62,0.64 -1.28,0.17 -2.5,0.39 -3.67,0.64 a 21.93,21.93 0 0 0 -3.5,1 9.9,9.9 0 0 0 -2.9,1.72 7.89,7.89 0 0 0 -2,2.81 10.24,10.24 0 0 0 -0.76,4.16 9.65,9.65 0 0 0 0.76,4.15 6.69,6.69 0 0 0 2.08,2.56 8,8 0 0 0 3.07,1.34 16.57,16.57 0 0 0 3.61,0.39 12.18,12.18 0 0 0 7.12,-1.79 11.22,11.22 0 0 0 3.72,-4.29 15,15 0 0 0 1.48,-5 c 0.18,-1.7 0.28,-3.06 0.28,-4.09 z"></path><path id="path78" style="fill:#1f140f" d="m 703.13,733.16035 h 14.78 v 12.27 h 0.22 a 23.32,23.32 0 0 1 3,-5.69 20.44,20.44 0 0 1 4.27,-4.47 19.24,19.24 0 0 1 5.2,-2.88 16.32,16.32 0 0 1 5.64,-1 9.24,9.24 0 0 1 3.4,0.64 v 16.87 c -0.73,-0.17 -1.61,-0.32 -2.63,-0.45 a 25.59,25.59 0 0 0 -3,-0.19 14.64,14.64 0 0 0 -7.23,1.66 13.12,13.12 0 0 0 -4.76,4.54 19.91,19.91 0 0 0 -2.57,6.78 42,42 0 0 0 -0.77,8.24 v 29.78 h -15.55 z"></path><path id="path80" style="fill:#1f140f" d="m 745.07,753.48035 a 23.67,23.67 0 0 1 2.74,-10.61 20.15,20.15 0 0 1 6.13,-6.77 24.55,24.55 0 0 1 8.32,-3.65 41.12,41.12 0 0 1 9.42,-1.08 54.32,54.32 0 0 1 8.65,0.7 23.73,23.73 0 0 1 8,2.75 16.45,16.45 0 0 1 5.92,5.75 18,18 0 0 1 2.3,9.59 v 34.39 a 78.46,78.46 0 0 0 0.44,8.57 17.32,17.32 0 0 0 1.53,6.13 h -15.78 a 29,29 0 0 1 -0.71,-3.13 c -0.18,-1.06 -0.31,-2.15 -0.39,-3.26 a 20.49,20.49 0 0 1 -8.76,6.33 29.64,29.64 0 0 1 -10.31,1.85 22.85,22.85 0 0 1 -7.55,-1.21 17.23,17.23 0 0 1 -6.14,-3.65 16.41,16.41 0 0 1 -4.1,-6.13 23.67,23.67 0 0 1 -1.48,-8.82 22.74,22.74 0 0 1 1.64,-9.27 15.39,15.39 0 0 1 4.38,-5.82 19.11,19.11 0 0 1 6.19,-3.26 57.27,57.27 0 0 1 7.06,-1.73 q 3.62,-0.63 6.9,-1 a 34.37,34.37 0 0 0 5.86,-1.15 9.89,9.89 0 0 0 4.1,-2.24 5.6,5.6 0 0 0 1.54,-4.28 11.14,11.14 0 0 0 -0.82,-4.67 6.74,6.74 0 0 0 -2.19,-2.68 7.81,7.81 0 0 0 -3.18,-1.28 22.6,22.6 0 0 0 -3.89,-0.32 10.66,10.66 0 0 0 -7.17,2.3 c -1.79,1.54 -2.83,4.09 -3.12,7.67 z m 35.92,13.43 a 6.9,6.9 0 0 1 -2.47,1.6 21.8,21.8 0 0 1 -3.17,1 c -1.13,0.26 -2.34,0.47 -3.62,0.64 -1.28,0.17 -2.5,0.39 -3.66,0.64 a 21.75,21.75 0 0 0 -3.51,1 9.9,9.9 0 0 0 -2.9,1.72 7.89,7.89 0 0 0 -2,2.81 10.24,10.24 0 0 0 -0.76,4.16 9.65,9.65 0 0 0 0.76,4.15 6.62,6.62 0 0 0 2.09,2.56 7.87,7.87 0 0 0 3.06,1.34 16.57,16.57 0 0 0 3.61,0.39 12.18,12.18 0 0 0 7.12,-1.79 11.34,11.34 0 0 0 3.73,-4.29 15.24,15.24 0 0 0 1.47,-5 38.38,38.38 0 0 0 0.28,-4.09 z"></path><path id="path82" style="fill:#1f140f" d="m 840.67,707.97035 h 35.26 a 28.45,28.45 0 0 1 12.48,2.49 23.7,23.7 0 0 1 8.38,6.59 26.62,26.62 0 0 1 4.71,9.39 40.4,40.4 0 0 1 0,21.67 26.64,26.64 0 0 1 -4.71,9.34 23.57,23.57 0 0 1 -8.38,6.58 28.45,28.45 0 0 1 -12.48,2.49 h -18.07 v 32.74 h -17.19 z m 17.19,43 h 13.36 a 31,31 0 0 0 5.69,-0.51 12.07,12.07 0 0 0 4.82,-2 10.2,10.2 0 0 0 3.34,-4.2 20.24,20.24 0 0 0 0,-14.06 10.3,10.3 0 0 0 -3.34,-4.16 12.06,12.06 0 0 0 -4.82,-2 31,31 0 0 0 -5.69,-0.51 h -13.36 z"></path><path id="path84" style="fill:#1f140f" d="m 965.17,799.26035 h -14.78 v -9.2 h -0.33 a 19.89,19.89 0 0 1 -7.66,8.31 19.26,19.26 0 0 1 -9.64,2.68 23.06,23.06 0 0 1 -10.24,-2 15.69,15.69 0 0 1 -6.3,-5.5 23.13,23.13 0 0 1 -3.23,-8.56 62,62 0 0 1 -0.93,-11.19 v -40.64 h 15.51 v 37.33 q 0,8.17 2.25,12.21 c 1.49,2.68 4.07,4 7.72,4 q 6.35,0 9.2,-4.41 2.85,-4.41 2.84,-14.51 v -34.62 h 15.59 z"></path><path id="path86" style="fill:#1f140f" d="m 977,707.97035 h 15.57 v 33.29 h 0.22 a 17.45,17.45 0 0 1 7.72,-7.48 23,23 0 0 1 10.13,-2.36 19,19 0 0 1 8.43,2 22.08,22.08 0 0 1 7.5,6.27 33.69,33.69 0 0 1 5.42,10.8 60,60 0 0 1 0,31.32 34.64,34.64 0 0 1 -5.42,10.87 21.83,21.83 0 0 1 -7.5,6.33 19,19 0 0 1 -8.43,2 25.55,25.55 0 0 1 -11.17,-2.36 15.5,15.5 0 0 1 -7.45,-7.87 h -0.22 v 8.48 H 977 Z m 41.5,58.3 a 41.2,41.2 0 0 0 -0.77,-8.06 23,23 0 0 0 -2.41,-6.77 13.49,13.49 0 0 0 -4.16,-4.67 11.12,11.12 0 0 0 -11.88,0 13.75,13.75 0 0 0 -4.1,4.67 23,23 0 0 0 -2.41,6.77 40.45,40.45 0 0 0 -0.77,8.06 39.55,39.55 0 0 0 0.77,7.92 22.91,22.91 0 0 0 2.41,6.78 13.75,13.75 0 0 0 4.1,4.67 11.12,11.12 0 0 0 11.88,0 13.49,13.49 0 0 0 4.16,-4.67 22.91,22.91 0 0 0 2.41,-6.78 40.29,40.29 0 0 0 0.77,-7.93 z"></path><path id="path88" style="fill:#1f140f" d="m 1044.34,707.97035 h 15.55 v 91.29 h -15.55 z"></path><path id="path90" style="fill:#1f140f" d="m 1088.14,722.93035 h -15.57 v -15 h 15.54 z m -15.57,10.23 h 15.54 v 66.1 h -15.54 z"></path><path id="path92" style="fill:#1f140f" d="m 1138.95,756.42035 q -1.53,-11.37 -11.49,-11.37 a 9.8,9.8 0 0 0 -6.25,2 15,15 0 0 0 -4.1,5.11 24.47,24.47 0 0 0 -2.25,7 44.75,44.75 0 0 0 -0.65,7.41 42.47,42.47 0 0 0 0.65,7.29 24.9,24.9 0 0 0 2.14,6.71 13.57,13.57 0 0 0 4,4.93 9.85,9.85 0 0 0 6.13,1.91 10.56,10.56 0 0 0 8.54,-3.64 18.41,18.41 0 0 0 3.83,-9.78 h 15 q -1.53,13.17 -8.76,20.13 -7.23,6.96 -18.5,7 a 27,27 0 0 1 -11.72,-2.49 25.83,25.83 0 0 1 -9,-7 33.57,33.57 0 0 1 -5.8,-10.74 42.48,42.48 0 0 1 -2.08,-13.62 50.72,50.72 0 0 1 1.91,-14.25 33.8,33.8 0 0 1 5.64,-11.38 26.17,26.17 0 0 1 9.09,-7.48 27.07,27.07 0 0 1 12.27,-2.68 30.89,30.89 0 0 1 9.69,1.53 23.76,23.76 0 0 1 8.26,4.67 25,25 0 0 1 6,7.86 27.7,27.7 0 0 1 2.69,11 z"></path><path id="path94" style="fill:#1f140f" d="m 1179.25,722.93035 h -15.55 v -15 h 15.55 z m -15.55,10.23 h 15.55 v 66.1 h -15.55 z"></path><path id="path96" style="fill:#1f140f" d="m 1231.92,790.81035 h -0.22 a 17.52,17.52 0 0 1 -7.22,7.8 20.63,20.63 0 0 1 -10,2.43 20.9,20.9 0 0 1 -11.22,-2.94 24.48,24.48 0 0 1 -7.89,-7.86 38.16,38.16 0 0 1 -4.71,-11.31 55,55 0 0 1 -1.58,-13.3 51.58,51.58 0 0 1 1.58,-12.85 35.86,35.86 0 0 1 4.71,-10.93 24.82,24.82 0 0 1 7.83,-7.61 20.56,20.56 0 0 1 10.95,-2.87 19.64,19.64 0 0 1 9.58,2.49 17.86,17.86 0 0 1 7.18,7.35 h 0.22 v -33.24 h 15.55 v 91.29 h -14.79 z m -0.22,-24.8 a 47,47 0 0 0 -0.65,-7.8 21.29,21.29 0 0 0 -2.25,-6.71 13.57,13.57 0 0 0 -4.16,-4.66 10.73,10.73 0 0 0 -6.3,-1.79 11.19,11.19 0 0 0 -6.46,1.79 13.11,13.11 0 0 0 -4.21,4.73 22.88,22.88 0 0 0 -2.3,6.71 41.78,41.78 0 0 0 -0.71,7.86 39.11,39.11 0 0 0 0.76,7.67 22.65,22.65 0 0 0 2.47,6.84 14.94,14.94 0 0 0 4.27,4.86 10.24,10.24 0 0 0 6.18,1.85 10.91,10.91 0 0 0 6.41,-1.79 12.92,12.92 0 0 0 4.11,-4.79 23.88,23.88 0 0 0 2.19,-6.84 47.77,47.77 0 0 0 0.65,-7.93 z"></path><path id="path98" style="fill:#1f140f" d="m 1257.76,753.48035 a 23.8,23.8 0 0 1 2.74,-10.61 20.26,20.26 0 0 1 6.13,-6.77 24.6,24.6 0 0 1 8.33,-3.65 41,41 0 0 1 9.41,-1.08 54.54,54.54 0 0 1 8.66,0.7 23.88,23.88 0 0 1 8,2.75 16.34,16.34 0 0 1 5.91,5.75 17.9,17.9 0 0 1 2.3,9.59 v 34.39 a 81,81 0 0 0 0.44,8.57 17.32,17.32 0 0 0 1.53,6.13 h -15.77 a 29,29 0 0 1 -0.71,-3.13 31.23,31.23 0 0 1 -0.38,-3.26 20.49,20.49 0 0 1 -8.76,6.33 29.72,29.72 0 0 1 -10.29,1.85 22.87,22.87 0 0 1 -7.56,-1.21 17.19,17.19 0 0 1 -6.13,-3.65 16.55,16.55 0 0 1 -4.11,-6.13 23.88,23.88 0 0 1 -1.48,-8.82 22.56,22.56 0 0 1 1.65,-9.27 15.18,15.18 0 0 1 4.38,-5.82 19.06,19.06 0 0 1 6.18,-3.26 57.42,57.42 0 0 1 7.07,-1.73 q 3.6,-0.63 6.89,-1 a 34.17,34.17 0 0 0 5.86,-1.15 9.87,9.87 0 0 0 4.11,-2.24 5.64,5.64 0 0 0 1.53,-4.28 11,11 0 0 0 -0.82,-4.67 6.74,6.74 0 0 0 -2.19,-2.68 7.77,7.77 0 0 0 -3.17,-1.28 22.77,22.77 0 0 0 -3.89,-0.32 10.63,10.63 0 0 0 -7.17,2.3 c -1.79,1.54 -2.83,4.09 -3.13,7.67 z m 35.92,13.43 a 6.86,6.86 0 0 1 -2.46,1.6 22.32,22.32 0 0 1 -3.18,1 c -1.13,0.26 -2.33,0.47 -3.61,0.64 -1.28,0.17 -2.5,0.39 -3.67,0.64 a 21.63,21.63 0 0 0 -3.5,1 9.82,9.82 0 0 0 -2.91,1.72 7.87,7.87 0 0 0 -2,2.81 10.23,10.23 0 0 0 -0.77,4.16 9.64,9.64 0 0 0 0.77,4.15 6.6,6.6 0 0 0 2.08,2.56 8,8 0 0 0 3.07,1.34 16.5,16.5 0 0 0 3.61,0.39 12.18,12.18 0 0 0 7.12,-1.79 11.22,11.22 0 0 0 3.72,-4.29 15.27,15.27 0 0 0 1.48,-5 40.72,40.72 0 0 0 0.27,-4.09 z"></path><path id="path100" style="fill:#1f140f" d="m 1361.68,790.81035 h -0.22 a 17.52,17.52 0 0 1 -7.22,7.8 20.63,20.63 0 0 1 -10,2.43 20.9,20.9 0 0 1 -11.22,-2.94 24.48,24.48 0 0 1 -7.89,-7.86 37.89,37.89 0 0 1 -4.7,-11.31 55,55 0 0 1 -1.59,-13.3 51.58,51.58 0 0 1 1.59,-12.85 35.6,35.6 0 0 1 4.7,-10.93 24.82,24.82 0 0 1 7.83,-7.61 20.56,20.56 0 0 1 10.95,-2.87 19.68,19.68 0 0 1 9.59,2.49 17.84,17.84 0 0 1 7.17,7.35 h 0.22 v -33.24 h 15.55 v 91.29 h -14.79 z m -0.22,-24.8 a 46,46 0 0 0 -0.65,-7.8 21.29,21.29 0 0 0 -2.25,-6.71 13.47,13.47 0 0 0 -4.16,-4.66 10.68,10.68 0 0 0 -6.29,-1.79 11.2,11.2 0 0 0 -6.47,1.79 13.2,13.2 0 0 0 -4.21,4.73 22.88,22.88 0 0 0 -2.3,6.71 41.78,41.78 0 0 0 -0.71,7.86 39.11,39.11 0 0 0 0.76,7.67 22.92,22.92 0 0 0 2.47,6.84 14.94,14.94 0 0 0 4.27,4.86 10.27,10.27 0 0 0 6.19,1.85 10.88,10.88 0 0 0 6.4,-1.79 12.83,12.83 0 0 0 4.11,-4.79 23.88,23.88 0 0 0 2.19,-6.84 46.72,46.72 0 0 0 0.65,-7.93 z"></path></svg> 